<svg xmlns="http://www.w3.org/2000/svg" viewBox="0 0 71.06 27.73"><defs><style>.cls-1{fill:#FFFFFF;}.cls-2{fill:#ea0029;}</style></defs><g id="Layer_2" data-name="Layer 2"><g id="Layer_1-2" data-name="Layer 1"><path class="cls-1" d="M15.55,21.62H13.33a2.38,2.38,0,0,0-.7.09,1.19,1.19,0,0,0-.45.23.89.89,0,0,0-.26.38,2,2,0,0,0-.12.47c0,.15,0,.34,0,.57a4.39,4.39,0,0,0,.05.7,1.67,1.67,0,0,0,.19.54.86.86,0,0,0,.48.39,2.45,2.45,0,0,0,.83.13h2.36V26H13a2.59,2.59,0,0,1-2-.68,3,3,0,0,1-.57-2,3,3,0,0,1,.57-2,2.59,2.59,0,0,1,2-.67h2.55Z"/><path class="cls-1" d="M22.87,20.72l-3.64,7H17.86L18.8,26l-2.72-5.28h1.39l2,4.07,2.07-4.07Z"/><path class="cls-1" d="M26.44,26H24.32c-.69,0-1-.3-1-.9V19h1.35v1.7h1.81a2.41,2.41,0,0,1,1.95.67,3.06,3.06,0,0,1,.55,2,3.09,3.09,0,0,1-.56,2A2.4,2.4,0,0,1,26.44,26Zm-1.81-4.4v3.2c0,.2.11.3.34.3h1.14a1.28,1.28,0,0,0,1.16-.44,2.59,2.59,0,0,0,.28-1.32,4.43,4.43,0,0,0-.05-.71,1.75,1.75,0,0,0-.18-.53.83.83,0,0,0-.44-.38,2.11,2.11,0,0,0-.77-.12Z"/><path class="cls-1" d="M35.31,26H31.93a3.55,3.55,0,0,1-1.18-.17,1.46,1.46,0,0,1-.71-.54,2.06,2.06,0,0,1-.32-.81,6,6,0,0,1-.09-1.14,2.69,2.69,0,0,1,.67-2.12,3.48,3.48,0,0,1,2.27-.58,4.3,4.3,0,0,1,2.18.45,1.77,1.77,0,0,1,.76,1.65c0,.66-.32,1-.95,1H31a1.66,1.66,0,0,0,.26,1,1.29,1.29,0,0,0,1,.34h3ZM31,22.86h2.79a.27.27,0,0,0,.3-.31.78.78,0,0,0-.44-.74,2.16,2.16,0,0,0-1.1-.25,1.86,1.86,0,0,0-1.2.3A1.28,1.28,0,0,0,31,22.86Z"/><path class="cls-1" d="M36.38,26v-3.3A1.82,1.82,0,0,1,37,21.19a3,3,0,0,1,1.85-.47h.91v.9h-.57a1.52,1.52,0,0,0-1.12.34A1.47,1.47,0,0,0,37.72,23v3Z"/><path class="cls-1" d="M41.44,20.72l1.71,3.93c.06.14.12.21.16.21s.1-.07.16-.21l1.71-3.93h1.39l-2.33,4.89a.8.8,0,0,1-.27.33.84.84,0,0,1-.3.12l-.36,0-.35,0a.81.81,0,0,1-.31-.12.83.83,0,0,1-.28-.33l-2.32-4.89Z"/><path class="cls-1" d="M48.28,20H46.94V18.94h1.34Zm-1.34,6v-5.3h1.34V26Z"/><path class="cls-1" d="M49.19,26v-.9h3.43A.65.65,0,0,0,53,25a.42.42,0,0,0,.17-.36.51.51,0,0,0-.07-.28.49.49,0,0,0-.23-.19,1.77,1.77,0,0,0-.28-.11L52.24,24l-.34-.07-1.17-.28A2.59,2.59,0,0,1,49.45,23a1.33,1.33,0,0,1-.34-1,1.24,1.24,0,0,1,.41-1,2.17,2.17,0,0,1,1.34-.32H54.3v.9H51.06a.87.87,0,0,0-.49.1.41.41,0,0,0-.15.38.43.43,0,0,0,.17.35,1,1,0,0,0,.32.2l.46.13,1.32.32.62.16a4.83,4.83,0,0,1,.5.19,1.28,1.28,0,0,1,.42.28,1.25,1.25,0,0,1,.25.39,1.35,1.35,0,0,1,.1.55,1.39,1.39,0,0,1-.33,1,1.58,1.58,0,0,1-1.16.35Z"/><path class="cls-1" d="M56.76,20H55.41V18.94h1.35Zm-1.35,6v-5.3h1.35V26Z"/><path class="cls-1" d="M64.12,23.36a2.57,2.57,0,0,1-.77,2.13,4.11,4.11,0,0,1-2.48.59,4.13,4.13,0,0,1-2.48-.59,2.59,2.59,0,0,1-.76-2.13,2.51,2.51,0,0,1,.77-2.11,4,4,0,0,1,2.47-.59,4.08,4.08,0,0,1,2.48.59A2.51,2.51,0,0,1,64.12,23.36Zm-5.1,0a1.92,1.92,0,0,0,.42,1.4,2,2,0,0,0,1.43.42,2,2,0,0,0,1.44-.42,1.92,1.92,0,0,0,.41-1.4A1.88,1.88,0,0,0,62.31,22a2,2,0,0,0-1.44-.41,2,2,0,0,0-1.43.41A1.88,1.88,0,0,0,59,23.36Z"/><path class="cls-1" d="M65,26v-4.4c0-.6.35-.9,1-.9h2.13a3.08,3.08,0,0,1,1.75.41,1.53,1.53,0,0,1,.62,1.4V26H69.19V22.84a1.24,1.24,0,0,0-.3-.92,1.35,1.35,0,0,0-1-.3H66.68c-.23,0-.34.1-.34.3V26Z"/><rect class="cls-2" x="14.41" y="2.93" width="2.89" height="10.48" rx="0.85"/><path class="cls-2" d="M12.18,2.93A1.85,1.85,0,0,0,10.51,4h0L7.36,10.7c-.07.16-.22.42-.34.42s-.27-.26-.35-.42L3.51,4A1.87,1.87,0,0,0,1.83,2.93H0L5,12.6a2,2,0,0,0,2,.93,1.94,1.94,0,0,0,2-.93l5-9.67Z"/><path class="cls-2" d="M67.33,1.33a.85.85,0,0,0-.85-.86H65.3a.85.85,0,0,0-.86.86V10a2.86,2.86,0,0,0,1.31,2.65,6,6,0,0,0,3.51.77h.95a.85.85,0,0,0,.85-.85v-.93h-.71a4.38,4.38,0,0,1-2.25-.46,2.38,2.38,0,0,1-.77-2.25Z"/><path class="cls-2" d="M48.83,11.63a4.38,4.38,0,0,1-2.25-.46,2.38,2.38,0,0,1-.77-2.25V4.71h2.8a.85.85,0,0,0,.86-.85V2.93H45.81V1.33h0A.85.85,0,0,0,45,.47H43.77a.85.85,0,0,0-.85.86v1.6h-6V1.33A.85.85,0,0,0,36,.47H34.85a.85.85,0,0,0-.85.86v1.6H32.2v.93a.85.85,0,0,0,.85.85h1V10a2.86,2.86,0,0,0,1.31,2.65,6,6,0,0,0,3.51.77h1a.85.85,0,0,0,.85-.85v-.93h-.71a4.38,4.38,0,0,1-2.25-.46,2.38,2.38,0,0,1-.77-2.25V4.71h6V10a2.86,2.86,0,0,0,1.31,2.65,6,6,0,0,0,3.51.77h.95a.85.85,0,0,0,.85-.85v-.93Z"/><path class="cls-2" d="M31.13,12.56v-.93h-6.4c-1.06,0-2.27-.12-2.64-1.25a6,6,0,0,1-.17-1.44h7.61a2.22,2.22,0,0,0,1.41-.39A1.89,1.89,0,0,0,31.55,7a3.41,3.41,0,0,0-1.85-3.4,9.88,9.88,0,0,0-4.32-.67c-1.24,0-3.46,0-4.9,1s-1.55,2.43-1.55,4.39a5.63,5.63,0,0,0,.94,3.81,5,5,0,0,0,4,1.33h6.41A.85.85,0,0,0,31.13,12.56Zm-2.57-6c0,.28-.07.61-.64.61H23.81c-1,0-1.89.48-1.89,1.07V7.16a2.14,2.14,0,0,1,.59-1.8,4,4,0,0,1,2.74-.69,4.74,4.74,0,0,1,2.47.48A1.67,1.67,0,0,1,28.56,6.55Z"/><path class="cls-2" d="M62.39,12.56v-.93H56c-1.06,0-2.27-.12-2.64-1.25a6,6,0,0,1-.18-1.44h7.61a2.2,2.2,0,0,0,1.41-.39A1.87,1.87,0,0,0,62.81,7,3.41,3.41,0,0,0,61,3.56a9.9,9.9,0,0,0-4.33-.67c-1.23,0-3.46,0-4.89,1s-1.56,2.43-1.56,4.39a5.68,5.68,0,0,0,.94,3.81,5,5,0,0,0,4,1.33h6.41A.85.85,0,0,0,62.39,12.56Zm-2.57-6c0,.28-.07.61-.64.61H55.07c-1,0-1.9.48-1.9,1.07V7.16a2.15,2.15,0,0,1,.6-1.8,4,4,0,0,1,2.74-.69A4.76,4.76,0,0,1,59,5.15,1.67,1.67,0,0,1,59.82,6.55Z"/><path class="cls-2" d="M16.44,0H15.26a.85.85,0,0,0-.85.85V2.93h0a1.39,1.39,0,0,1,1.43-1h.59a.86.86,0,0,0,.86-.85V.85A.86.86,0,0,0,16.44,0Z"/></g></g></svg>