<svg xmlns="http://www.w3.org/2000/svg" viewBox="0 0 46.88 46.88" fill="#0d6efd">
    <g id="Layer_2" data-name="Layer 2">
        <g id="Layer_1-2" data-name="Layer 1">
            <circle class="cls-1" cx="23.44" cy="23.44" r="23.44" transform="rotate(-13.28 23.434 23.45)"/>
            <path d="M43.44 23.44a20 20 0 1 0-20 20 20 20 0 0 0 20-20Z" style="fill:#fff"/>
            <path class="cls-1"
                  d="M8.06 40.37a1 1 0 0 0 1-.78c0-.14.06-.27.1-.4a13.78 13.78 0 0 1 5.68-8.31A14.08 14.08 0 0 1 26 28.53a14.08 14.08 0 0 1 10.22 7.89 12.92 12.92 0 0 1 1.06 3.14 1 1 0 0 0 1.79.45.92.92 0 0 0 .16-1 1.21 1.21 0 0 1-.08-.25 14.51 14.51 0 0 0-1-2.87 16.18 16.18 0 0 0-9.64-8.73L28.1 27l.23-.13a10 10 0 0 0 5.09-9.61 10.18 10.18 0 0 0-8.35-9c-.43-.07-.86-.11-1.3-.17h-1.25c-.36 0-.71.08-1.07.14a10.14 10.14 0 0 0-8.56 9.26 9.71 9.71 0 0 0 3.76 8.47c.45.36 1 .65 1.43 1l.12.08c-.48.17-.94.33-1.39.52a16.11 16.11 0 0 0-8 7.08 15.26 15.26 0 0 0-1.63 4.17 4.43 4.43 0 0 1-.18.39v.36l.06.14a1 1 0 0 0 1 .67ZM16 21.29a7.49 7.49 0 0 1 1.37-8.35 7.65 7.65 0 0 1 8.08-2.17 7.34 7.34 0 0 1 5.43 5.83 7.31 7.31 0 0 1-2.44 7.28 8.12 8.12 0 0 1-5.74 2 7.61 7.61 0 0 1-6.7-4.59Z"/>
        </g>
    </g>
</svg>