<svg width="93" height="27" viewBox="0 0 93 27" fill="none" xmlns="http://www.w3.org/2000/svg">
<path d="M13.4336 8.5625V17.1758C13.4336 21.8691 10.375 24.9453 6.98242 24.9453C3.58984 24.9453 1.62109 23.0293 1.62109 18.3008V8.5625H0.425781V18.8105C0.425781 23.4336 2.78125 26.1582 7.03516 26.1582C9.63672 26.1582 12.0098 24.6641 13.3633 22.0977H13.416V26H14.6113V8.5625H13.4336ZM24.4023 26H31.1875V6.54102H37.6562V0.441406H17.8809V6.54102H24.4023V26ZM56.8516 0.441406L51.9297 16.2617H51.8418L47.0078 0.441406H39.5547L48.9062 26H54.918L64.2168 0.441406H56.8516ZM85.8906 0.441406L79.5801 13.0801H79.4395L73.0762 0.441406H66.1504V26H72.918V13.3789H73.0059L77.3125 21.3945H81.6719L85.9609 13.4141H86.0664V26H92.834V0.441406H85.8906Z" fill="#0085FF"/>
</svg>
