<?xml version="1.0" encoding="utf-8"?>
<svg version="1.1" xmlns="http://www.w3.org/2000/svg" xmlns:xlink="http://www.w3.org/1999/xlink" x="0px" y="0px" viewBox="0 0 1000 1000" enable-background="new 0 0 1000 1000" xml:space="preserve">
<g><g transform="translate(0.000000,492.000000) scale(0.100000,-0.100000)"><path fill="#a0a0a0" d="M4610.8,4805.1c-1540-117.7-2958.4-983.5-3776.2-2302.1c-979.5-1581.9-979.5-3584.7,0-5166.7c444.8-716.2,1071.2-1308.6,1821.3-1719.6c1448.3-795.9,3239.6-795.9,4687.9,0c750.1,410.9,1376.4,1003.4,1821.3,1719.6C10467.7-561,9998.9,2183.9,8073.9,3735.8C7100.4,4521.8,5863.6,4902.8,4610.8,4805.1z M5474.6,4386.2c1031.3-111.7,1960.9-558.6,2697-1294.7c857.8-855.8,1316.6-1962.9,1316.6-3171.8c0-1208.9-458.8-2316-1316.6-3171.8c-855.8-857.8-1962.9-1316.6-3171.8-1316.6c-1208.9,0-2316,458.8-3171.8,1316.6C970.3-2396.3,511.4-1289.2,511.4-80.3c0,1208.9,458.8,2316,1316.6,3171.8c724.1,726.1,1659.7,1181,2663.1,1292.7C4718.6,4410.1,5247.2,4412.1,5474.6,4386.2z"/><path fill="#a0a0a0" d="M3134.7,1096.7c-209.5-81.8-367.1-309.2-373-532.6C2745.7,1.5,3396-289.7,3797,103.2c289.3,283.3,207.5,788-159.6,977.5C3515.7,1142.5,3270.3,1150.5,3134.7,1096.7z"/><path fill="#a0a0a0" d="M6430.2,1108.6c-245.4-87.8-401-313.2-399-580.5c0-175.5,55.8-311.2,171.6-424.9c217.4-213.5,558.6-237.4,796-57.9c464.8,355.1,215.4,1095.2-369.1,1091.2C6561.8,1134.6,6472,1122.6,6430.2,1108.6z"/><path fill="#a0a0a0" d="M4770.4-1109.6c-231.4-23.9-504.7-79.8-708.2-147.6c-456.8-149.6-1029.3-482.8-1240.8-724.1c-73.8-83.8-75.8-187.5-4-271.3c41.9-51.9,65.8-61.9,137.6-61.9c73.8,0,101.7,14,221.4,113.7c303.2,247.4,620.4,424.9,983.5,544.6c295.2,97.8,546.6,139.6,839.8,139.6c293.2,0,544.6-41.9,839.8-139.6c363.1-119.7,680.3-297.2,983.5-544.6c117.7-97.8,147.6-113.7,219.4-113.7c123.7,2,191.5,71.8,191.5,203.5c0,79.8-55.8,147.6-229.4,287.3c-405,321.2-1003.4,592.5-1492.1,676.2C5331-1117.6,4912.1-1095.7,4770.4-1109.6z"/></g></g>
</svg>